<svg xmlns="http://www.w3.org/2000/svg" xmlns:xlink="http://www.w3.org/1999/xlink" width="52.235" height="63.315" viewBox="0 0 52.235 63.315">
  <defs>
    <linearGradient id="linear-gradient" y1="0.156" x2="0.937" y2="1" gradientUnits="objectBoundingBox">
      <stop offset="0" stop-color="#ef1d74"/>
      <stop offset="1" stop-color="#f1622c"/>
    </linearGradient>
    <filter id="Ellipse_5" x="8.639" y="19.719" width="43.595" height="43.595" filterUnits="userSpaceOnUse">
      <feOffset dy="3" input="SourceAlpha"/>
      <feGaussianBlur stdDeviation="3" result="blur"/>
      <feFlood flood-opacity="0.161"/>
      <feComposite operator="in" in2="blur"/>
      <feComposite in="SourceGraphic"/>
    </filter>
  </defs>
  <g id="Group_99" data-name="Group 99" transform="translate(-768.973 -417.923)">
    <g id="clipboard_3_" data-name="clipboard (3)" transform="translate(768.973 417.923)">
      <g id="Group_97" data-name="Group 97" transform="translate(0)">
        <path id="Path_82" data-name="Path 82" d="M103.338,5.551H97.885V4.806A1.387,1.387,0,0,0,96.5,3.419H94.262a4.807,4.807,0,0,0-9.2,0H82.821a1.387,1.387,0,0,0-1.386,1.386v.745H75.982A1.387,1.387,0,0,0,74.6,6.937V41.131a1.387,1.387,0,0,0,1.386,1.386h27.355a1.387,1.387,0,0,0,1.386-1.386V6.937A1.387,1.387,0,0,0,103.338,5.551Zm-19.13.642h2.033a1.387,1.387,0,0,0,1.386-1.386,2.033,2.033,0,0,1,4.066,0A1.387,1.387,0,0,0,93.08,6.192h2.033V8.366h-10.9Zm10.945,28H84.167a1.386,1.386,0,0,1,0-2.773H95.153a1.386,1.386,0,0,1,0,2.773Zm0-7.366H84.167a1.386,1.386,0,1,1,0-2.773H95.153a1.386,1.386,0,0,1,0,2.773Zm0-7.366H84.167a1.386,1.386,0,0,1,0-2.773H95.153a1.386,1.386,0,0,1,0,2.773Z" transform="translate(-74.596)" fill="url(#linear-gradient)"/>
      </g>
    </g>
    <g transform="matrix(1, 0, 0, 1, 768.97, 417.92)" filter="url(#Ellipse_5)">
      <g id="Ellipse_5-2" data-name="Ellipse 5" transform="translate(17.64 25.72)" fill="#fff" stroke="#ef1d74" stroke-width="1">
        <circle cx="12.798" cy="12.798" r="12.798" stroke="none"/>
        <circle cx="12.798" cy="12.798" r="12.298" fill="none"/>
      </g>
    </g>
    <path id="Icon_feather-check" data-name="Icon feather-check" d="M17.639,9l-8,8L6,13.365" transform="translate(787.591 443.439)" fill="none" stroke="#ef1d74" stroke-linecap="round" stroke-linejoin="round" stroke-width="1.5"/>
  </g>
</svg>
