<svg xmlns="http://www.w3.org/2000/svg" width="178.72" height="38.871" viewBox="0 0 178.72 38.871"><path data-name="Path 56" d="M5.782 3.962v-.775A2.868 2.868 0 0 1 8.642.326a2.861 2.861 0 0 1 2.856 2.861v4.488a2.861 2.861 0 0 1-2.856 2.861 2.868 2.868 0 0 1-2.86-2.861V3.38m20.616 4.295V3.187A2.868 2.868 0 0 0 23.542.326a2.868 2.868 0 0 0-2.861 2.861v4.488a2.868 2.868 0 0 0 2.861 2.861 2.868 2.868 0 0 0 2.856-2.861zm5.915 4.6a3.519 3.519 0 0 0-4.38-.535 24.21 24.21 0 0 1-23.071 0c-1.295-.721-3.427-.775-4.388.535-1.24 1.55.209 3.682 1.55 4.45a33.258 33.258 0 0 0 3.729 1.69v9.194a2.861 2.861 0 1 0 5.713 0V19.97a29.459 29.459 0 0 0 9.186.093v7.551a2.868 2.868 0 0 0 2.861 2.861 2.868 2.868 0 0 0 2.853-2.861v-8.969a33.374 33.374 0 0 0 4.332-1.915c1.519-.768 2.752-2.907 1.612-4.45zm11.943-1.879a10.078 10.078 0 0 0 0 20.156 9.962 9.962 0 0 0 3.388-.574 10.078 10.078 0 0 0 2.233-1.14 2.14 2.14 0 0 0 .6 1.054 2.287 2.287 0 0 0 3.209 0 2.209 2.209 0 0 0 .659-1.6V20.49a10.078 10.078 0 0 0-10.073-10.078zm-3.946 6.2a5.7 5.7 0 0 1 1.76-1.194 5.427 5.427 0 0 1 2.186-.442 5.318 5.318 0 0 1 2.163.442 5.566 5.566 0 0 1 2.961 2.977 5.489 5.489 0 0 1 0 4.279 5.706 5.706 0 0 1-1.182 1.778 5.768 5.768 0 0 1-1.775 1.147 5.427 5.427 0 0 1-2.163.442 5.5 5.5 0 0 1-3.946-1.612 5.713 5.713 0 0 1-1.186-1.768 5.427 5.427 0 0 1-.434-2.155 5.272 5.272 0 0 1 .442-2.147 5.6 5.6 0 0 1 1.178-1.775zm33.079-3.217a10.078 10.078 0 0 0-17.226 7.14v16.057a2.209 2.209 0 0 0 2.256 2.264 2.233 2.233 0 0 0 1.6-.643 2.163 2.163 0 0 0 .667-1.62V28.94a9.783 9.783 0 0 0 5.566 1.643 9.985 9.985 0 0 0 3.876-.729 10.241 10.241 0 0 0 3.287-2.225 9.675 9.675 0 0 0 2.961-7.14 10.078 10.078 0 0 0-.775-3.876 9.737 9.737 0 0 0-2.217-3.264zm-11.078 3.188a5.7 5.7 0 0 1 1.76-1.194 5.427 5.427 0 0 1 2.186-.442 5.318 5.318 0 0 1 2.163.442 5.566 5.566 0 0 1 2.961 2.977 5.427 5.427 0 0 1 .434 2.14 5.333 5.333 0 0 1-.434 2.14 5.706 5.706 0 0 1-1.183 1.776 5.768 5.768 0 0 1-1.775 1.178 5.427 5.427 0 0 1-2.163.442 5.5 5.5 0 0 1-3.946-1.643 5.713 5.713 0 0 1-1.186-1.768 5.547 5.547 0 0 1 0-4.3 5.744 5.744 0 0 1 1.186-1.744zM95.39 13.35a10.078 10.078 0 0 0-17.233 7.14v16.086a2.209 2.209 0 0 0 2.264 2.264 2.24 2.24 0 0 0 1.6-.643 2.163 2.163 0 0 0 .667-1.62V28.94a9.783 9.783 0 0 0 5.566 1.643 9.985 9.985 0 0 0 3.876-.729 10.241 10.241 0 0 0 3.287-2.225 9.7 9.7 0 0 0 2.961-7.14 10.078 10.078 0 0 0-.775-3.876 9.737 9.737 0 0 0-2.217-3.264zm-11.078 3.217a5.523 5.523 0 0 1 7.853.008 5.683 5.683 0 0 1 1.194 1.775 5.427 5.427 0 0 1 .434 2.14 5.333 5.333 0 0 1-.434 2.14 5.682 5.682 0 0 1-2.938 2.954 5.52 5.52 0 0 1-6.109-1.2 5.713 5.713 0 0 1-1.186-1.768 5.547 5.547 0 0 1 0-4.3 5.744 5.744 0 0 1 1.186-1.749zm31.567-4.791a2.566 2.566 0 0 0-.481-.713 2.217 2.217 0 0 0-.721-.5 2.434 2.434 0 0 0-.892-.171 2.109 2.109 0 0 0-1.38.457 2.5 2.5 0 0 0-.729 1.016l-4.4 10.528-4.4-10.5a2.364 2.364 0 0 0-.884-1.1 2.279 2.279 0 0 0-1.248-.372 2.4 2.4 0 0 0-.891.171 2.217 2.217 0 0 0-.721.5 2.372 2.372 0 0 0-.473.721 2.2 2.2 0 0 0-.178.868 2.45 2.45 0 0 0 .209.992l6.109 14.683-3.013 7.25a2.28 2.28 0 0 0-.217.985 2.225 2.225 0 0 0 .643 1.62 2.178 2.178 0 0 0 1.612.659 2.209 2.209 0 0 0 1.295-.426 2.5 2.5 0 0 0 .845-1.07l9.876-23.691a2.465 2.465 0 0 0 .233-1 2.139 2.139 0 0 0-.194-.907z" fill="#fff"/><path data-name="Path 57" d="M148.463 12.636a2.457 2.457 0 0 0-2.45 2.45v12.915a2.457 2.457 0 0 0 4.907 0V15.086a2.457 2.457 0 0 0-2.457-2.45z" fill="#fff"/><path data-name="Path 58" d="M162.844 4.8a2.326 2.326 0 0 0 1.682-.7 2.326 2.326 0 0 0 .705-1.713A2.326 2.326 0 0 0 164.526.7a2.326 2.326 0 0 0-1.682-.7c-6.248 0-9.419 3.163-9.419 9.411v18.683a2.443 2.443 0 0 0 .186.915 2.582 2.582 0 0 0 .5.775 2.279 2.279 0 0 0 .775.519 2.457 2.457 0 0 0 1.876 0 2.279 2.279 0 0 0 .775-.519 2.529 2.529 0 0 0 .682-1.69V14.729h3.248a2.4 2.4 0 0 0 1.69-4.1 2.326 2.326 0 0 0-1.69-.705h-3.248v-.489c-.011-3.171 1.478-4.635 4.625-4.635z" fill="#fff"/><path data-name="Path 59" d="M178.022 27.722a2.326 2.326 0 0 0-1.713-.713c-2.248 0-3.295-1.047-3.295-3.279v-9h1.884a2.326 2.326 0 0 0 1.713-.721 2.473 2.473 0 0 0 0-3.442 2.326 2.326 0 0 0-1.713-.713h-1.884v-7.25a2.326 2.326 0 0 0-.705-1.713 2.442 2.442 0 0 0-3.45 0 2.326 2.326 0 0 0-.713 1.713v7.257h-.419a2.435 2.435 0 0 0-2.4 2.426 2.372 2.372 0 0 0 .713 1.737 2.326 2.326 0 0 0 1.69.713h.419v8.993c0 5.427 2.752 8.148 8.163 8.148a2.326 2.326 0 0 0 1.713-.713 2.473 2.473 0 0 0 0-3.442z" fill="#fff"/><path data-name="Path 60" d="M143.417 15.552a2.644 2.644 0 0 0-.736-.5 2.326 2.326 0 0 0-.907-.194h-6.822a2.426 2.426 0 0 0-.93.178 2.228 2.228 0 0 0-1.279 1.279 2.434 2.434 0 0 0-.178.915 2.326 2.326 0 0 0 2.326 2.326h4.45v4.8a10.148 10.148 0 0 1-12.4-1.442 9.69 9.69 0 0 1-2.907-7.086 9.993 9.993 0 0 1 10.086-9.985 9.76 9.76 0 0 1 6.14 2.093 2.326 2.326 0 0 0 1.6.651 2.473 2.473 0 0 0 .923-.178 2.326 2.326 0 0 0 1.255-1.248 2.465 2.465 0 0 0 .194-.954 2.163 2.163 0 0 0-.643-1.643 14.621 14.621 0 0 0-9.473-3.434 14.256 14.256 0 0 0-10.4 4.3 14.249 14.249 0 0 0-4.331 10.408 14.28 14.28 0 0 0 4.3 10.419 14.28 14.28 0 0 0 10.427 4.3 14.5 14.5 0 0 0 9.3-3.271l.047-.039a2.4 2.4 0 0 0 .721-1.682v-8.354a2.325 2.325 0 0 0-.194-.907 2.512 2.512 0 0 0-.569-.752z" fill="#fff"/><path data-name="Path 61" d="M148.338 6.652a2.488 2.488 0 1 0 2.488 2.488 2.489 2.489 0 0 0-2.488-2.488z" fill="#fff"/></svg>