<svg xmlns="http://www.w3.org/2000/svg" width="236.092" height="51.349" viewBox="0 0 236.092 51.349"><path data-name="Path 56" d="M7.638 5.233V4.21A3.789 3.789 0 0 1 11.417.43a3.779 3.779 0 0 1 3.768 3.78v5.93a3.779 3.779 0 0 1-3.769 3.779 3.789 3.789 0 0 1-3.778-3.781V4.465m27.23 5.673V4.21a3.789 3.789 0 0 0-3.77-3.78 3.789 3.789 0 0 0-3.777 3.78v5.93a3.789 3.789 0 0 0 3.777 3.777 3.789 3.789 0 0 0 3.769-3.779zm7.814 6.083c-1.321-1.669-4.1-1.751-5.786-.707a31.982 31.982 0 0 1-30.477 0c-1.71-.952-4.527-1.024-5.8.707-1.635 2.049.279 4.865 2.052 5.879a43.934 43.934 0 0 0 4.927 2.232v12.146a3.779 3.779 0 1 0 7.548 0v-10.1a38.916 38.916 0 0 0 12.136.123v9.975a3.789 3.789 0 0 0 3.779 3.779 3.789 3.789 0 0 0 3.769-3.779V24.629a44.088 44.088 0 0 0 5.725-2.53c2.004-1.013 3.633-3.84 2.127-5.877zm15.781-2.489a13.313 13.313 0 0 0 0 26.626 13.16 13.16 0 0 0 4.475-.758 13.314 13.314 0 0 0 2.949-1.505 2.827 2.827 0 0 0 .8 1.393 3.021 3.021 0 0 0 4.24 0 2.919 2.919 0 0 0 .87-2.11V27.067a13.313 13.313 0 0 0-13.313-13.314zm-5.213 8.193a7.527 7.527 0 0 1 2.325-1.577 7.169 7.169 0 0 1 2.888-.584 7.025 7.025 0 0 1 2.857.584 7.353 7.353 0 0 1 3.912 3.933 7.251 7.251 0 0 1 0 5.653 7.537 7.537 0 0 1-1.567 2.345 7.619 7.619 0 0 1-2.345 1.516 7.169 7.169 0 0 1-2.857.584 7.261 7.261 0 0 1-5.213-2.13 7.548 7.548 0 0 1-1.566-2.339 7.169 7.169 0 0 1-.573-2.847 6.964 6.964 0 0 1 .587-2.833 7.394 7.394 0 0 1 1.557-2.345zm43.7-4.25a13.313 13.313 0 0 0-22.752 9.435v21.207a2.919 2.919 0 0 0 2.98 2.99 2.949 2.949 0 0 0 2.12-.85 2.857 2.857 0 0 0 .881-2.14V38.229a12.924 12.924 0 0 0 7.353 2.171 13.19 13.19 0 0 0 5.12-.963 13.528 13.528 0 0 0 4.342-2.939 12.781 12.781 0 0 0 3.912-9.432 13.313 13.313 0 0 0-1.024-5.12 12.862 12.862 0 0 0-2.929-4.311zm-14.635 4.21a7.527 7.527 0 0 1 2.324-1.575 7.169 7.169 0 0 1 2.888-.584 7.025 7.025 0 0 1 2.857.584 7.353 7.353 0 0 1 3.914 3.93 7.169 7.169 0 0 1 .573 2.827 7.046 7.046 0 0 1-.574 2.827 7.537 7.537 0 0 1-1.567 2.345 7.619 7.619 0 0 1-2.345 1.557 7.169 7.169 0 0 1-2.857.584 7.261 7.261 0 0 1-5.213-2.17 7.548 7.548 0 0 1-1.567-2.335 7.328 7.328 0 0 1 0-5.684 7.588 7.588 0 0 1 1.567-2.3zm43.7-4.25a13.313 13.313 0 0 0-22.766 9.432v21.25a2.919 2.919 0 0 0 2.99 2.99 2.96 2.96 0 0 0 2.12-.85 2.857 2.857 0 0 0 .881-2.14V38.229a12.924 12.924 0 0 0 7.353 2.171 13.19 13.19 0 0 0 5.12-.963 13.528 13.528 0 0 0 4.342-2.939 12.811 12.811 0 0 0 3.912-9.432 13.313 13.313 0 0 0-1.024-5.12 12.862 12.862 0 0 0-2.929-4.311zm-14.634 4.25a7.3 7.3 0 0 1 10.374.01 7.507 7.507 0 0 1 1.577 2.345 7.169 7.169 0 0 1 .574 2.827 7.046 7.046 0 0 1-.573 2.827 7.507 7.507 0 0 1-3.881 3.9 7.292 7.292 0 0 1-8.07-1.587 7.547 7.547 0 0 1-1.567-2.335 7.328 7.328 0 0 1 0-5.684 7.588 7.588 0 0 1 1.564-2.303zm41.7-6.329a3.39 3.39 0 0 0-.635-.942 2.929 2.929 0 0 0-.952-.655 3.216 3.216 0 0 0-1.178-.225 2.786 2.786 0 0 0-1.823.6 3.3 3.3 0 0 0-.963 1.342l-5.807 13.907-5.807-13.863a3.123 3.123 0 0 0-1.167-1.454 3.011 3.011 0 0 0-1.649-.492 3.175 3.175 0 0 0-1.178.225 2.929 2.929 0 0 0-.952.655 3.134 3.134 0 0 0-.625.952 2.908 2.908 0 0 0-.236 1.147 3.236 3.236 0 0 0 .277 1.311l8.07 19.4-3.994 9.575a3.011 3.011 0 0 0-.287 1.3 2.939 2.939 0 0 0 .85 2.14 2.878 2.878 0 0 0 2.13.87 2.919 2.919 0 0 0 1.71-.563 3.3 3.3 0 0 0 1.116-1.413l13.047-31.3a3.257 3.257 0 0 0 .307-1.321 2.826 2.826 0 0 0-.256-1.2z" fill="#ed1b69"/><path data-name="Path 57" d="M196.122 16.693a3.246 3.246 0 0 0-3.236 3.236v17.064a3.246 3.246 0 0 0 6.483 0V19.929a3.246 3.246 0 0 0-3.247-3.236z" fill="#f16a24"/><path data-name="Path 58" d="M215.12 6.339a3.072 3.072 0 0 0 2.222-.922 3.072 3.072 0 0 0 .932-2.263 3.072 3.072 0 0 0-.932-2.233A3.072 3.072 0 0 0 215.12 0c-8.253 0-12.443 4.178-12.443 12.433v24.68a3.225 3.225 0 0 0 .246 1.208 3.41 3.41 0 0 0 .666 1.024 3.011 3.011 0 0 0 1.024.686 3.246 3.246 0 0 0 2.478 0 3.011 3.011 0 0 0 1.024-.686 3.341 3.341 0 0 0 .9-2.233V19.458h4.291a3.175 3.175 0 0 0 2.233-5.417 3.072 3.072 0 0 0-2.233-.932h-4.291v-.645c-.019-4.189 1.947-6.125 6.105-6.125z" fill="#f16a24"/><path data-name="Path 59" d="M235.172 36.622a3.072 3.072 0 0 0-2.263-.942c-2.97 0-4.352-1.383-4.352-4.332v-11.89h2.489a3.072 3.072 0 0 0 2.263-.952 3.267 3.267 0 0 0 0-4.547 3.072 3.072 0 0 0-2.263-.942h-2.489V3.441a3.072 3.072 0 0 0-.932-2.263 3.226 3.226 0 0 0-4.557 0 3.072 3.072 0 0 0-.942 2.263v9.586h-.553a3.217 3.217 0 0 0-3.175 3.205 3.134 3.134 0 0 0 .942 2.294 3.072 3.072 0 0 0 2.232.942h.553v11.88c0 7.169 3.636 10.763 10.784 10.763a3.072 3.072 0 0 0 2.263-.942 3.267 3.267 0 0 0 0-4.547z" fill="#f16a24"/><path data-name="Path 60" d="M189.456 20.543a3.492 3.492 0 0 0-.973-.666 3.072 3.072 0 0 0-1.2-.256h-9.012a3.205 3.205 0 0 0-1.229.236 2.943 2.943 0 0 0-1.69 1.69 3.215 3.215 0 0 0-.236 1.208 3.072 3.072 0 0 0 3.072 3.072h5.878v6.339a13.405 13.405 0 0 1-16.386-1.9 12.8 12.8 0 0 1-3.84-9.36 13.2 13.2 0 0 1 13.323-13.19 12.893 12.893 0 0 1 8.111 2.765 3.072 3.072 0 0 0 2.12.86 3.268 3.268 0 0 0 1.219-.236 3.072 3.072 0 0 0 1.658-1.649 3.257 3.257 0 0 0 .256-1.26 2.857 2.857 0 0 0-.85-2.171 19.314 19.314 0 0 0-12.51-4.54 18.833 18.833 0 0 0-13.743 5.684 18.823 18.823 0 0 0-5.715 13.753 18.864 18.864 0 0 0 5.684 13.764 18.864 18.864 0 0 0 13.774 5.684 19.161 19.161 0 0 0 12.289-4.322l.061-.051a3.165 3.165 0 0 0 .952-2.222v-11.04a3.073 3.073 0 0 0-.256-1.2 3.319 3.319 0 0 0-.757-.992z" fill="#f16a24"/><path data-name="Path 61" d="M195.958 8.787a3.287 3.287 0 1 0 3.287 3.287 3.287 3.287 0 0 0-3.287-3.287z" fill="#f16a24"/></svg>