<svg xmlns="http://www.w3.org/2000/svg" width="42" height="42" viewBox="0 0 42 42"><g data-name="Group 10077" transform="translate(-122 -42)"><circle data-name="Ellipse 4" cx="21" cy="21" r="21" transform="translate(122 42)" fill="#dcdcdc"/><path data-name="Intersection 1" d="M127.153 76.779C130.179 73.1 138.426 71.25 143 71.25s12.822 1.85 15.847 5.53A20.952 20.952 0 0 1 143 84a20.952 20.952 0 0 1-15.847-7.221zM134.5 58.5A8.5 8.5 0 0 1 143 50a8.5 8.5 0 0 1 8.5 8.5A8.5 8.5 0 0 1 143 67a8.5 8.5 0 0 1-8.5-8.5z" fill="#a9a9a9"/></g></svg>